IKResults
version=1
nRows=7
nColumns=40
inDegrees=yes

Units are S.I. units (second, meters, Newtons, ...)
Angles are in degrees.

endheader
time	pelvis_tilt	pelvis_list	pelvis_rotation	pelvis_tx	pelvis_ty	pelvis_tz	hip_flexion_r	hip_adduction_r	hip_rotation_r	knee_angle_r	knee_angle_r_beta	ankle_angle_r	subtalar_angle_r	mtp_angle_r	hip_flexion_l	hip_adduction_l	hip_rotation_l	knee_angle_l	knee_angle_l_beta	ankle_angle_l	subtalar_angle_l	mtp_angle_l	lumbar_extension	lumbar_bending	lumbar_rotation	arm_flex_r	arm_add_r	arm_rot_r	elbow_flex_r	pro_sup_r	wrist_flex_r	wrist_dev_r	arm_flex_l	arm_add_l	arm_rot_l	elbow_flex_l	pro_sup_l	wrist_flex_l	wrist_dev_l
      0.00000000	     17.17105600	      0.28517903	      1.08935283	     -1.05907901	      0.95053278	      1.02148282	    -21.53304425	      2.80198758	    -14.34830122	    -11.36096242	     -0.19828620	     10.71293041	      0.70308790	     -2.10446084	     -4.89202701	      2.53212877	     12.35476425	    -26.81849269	     -0.46807100	     11.39651122	     12.91558920	     -0.53340655	    -23.63347998	     -0.87076770	     -1.48153867	     -2.68400378	    -12.11745615	      1.30646867	     32.73077405	     89.95437384	      0.00000000	      0.00000000	      1.64390983	      8.78341432	     12.39934017	     20.80983780	     89.95437384	      0.00000000	      0.00000000
      0.01000000	     16.87559553	      0.32417264	      1.23558051	     -1.05490985	      0.94979598	      1.02160660	    -21.46358934	      2.82555052	    -14.42551968	    -11.44302236	     -0.19971842	     10.87087290	      0.69537240	     -2.13831125	     -3.97611039	      2.50911859	     12.92337349	    -25.54615202	     -0.44586446	     11.09229697	     12.42327390	     -0.57678470	    -23.35750195	     -0.89032058	     -1.53483665	     -2.66171111	    -12.14334738	      1.28852156	     32.79820842	     89.95437384	      0.00000000	      0.00000000	      1.27298159	      8.84811179	     12.46614975	     20.52652978	     89.95437384	      0.00000000	      0.00000000
      0.02000000	     17.09252701	      0.80482237	      0.98847418	     -1.05042752	      0.95003501	      1.02185830	    -21.97583687	      2.24129891	    -14.36464688	    -11.52859639	     -0.20121197	     11.10767986	      0.75676660	     -2.24370952	     -3.97693726	      1.98921645	     13.61964003	    -23.93935824	     -0.41782062	      9.73612523	     10.42410827	     -0.80251844	    -23.61501433	     -1.48187922	     -1.37250615	     -2.54869375	    -12.10830731	      1.17631214	     32.66876057	     89.95437384	      0.00000000	      0.00000000	      1.06583071	      8.85308787	     12.90094608	     20.06061939	     89.95437384	      0.00000000	      0.00000000
      0.03000000	     17.30486042	      0.96735807	      0.63655370	     -1.04573757	      0.95000561	      1.02244672	    -22.50540436	      1.93996579	    -14.28942852	    -11.55321395	     -0.20164162	     11.19513064	      1.15542378	     -2.49631624	     -3.88177399	      1.98160392	     15.38865545	    -22.53603469	     -0.39332801	      8.75204542	      8.26458747	     -1.48488861	    -23.84341463	     -1.78990936	     -1.02924157	     -2.61120081	    -12.21711300	      1.32044293	     32.94085504	     89.95437384	      0.00000000	      0.00000000	      0.62849009	      8.85522156	     13.27803686	     20.01093059	     89.95437384	      0.00000000	      0.00000000
      0.04000000	     17.34142235	      1.20426948	      0.48430604	     -1.04133140	      0.94979225	      1.02262489	    -22.77709728	      1.61909731	    -14.30679424	    -11.69700587	     -0.20415126	     11.37808463	      1.20158399	     -2.68118530	     -3.49488360	      1.83315007	     16.67027293	    -21.38074138	     -0.37316433	      7.71407798	      6.31452371	     -2.03397315	    -23.91328243	     -2.10670026	     -0.88574360	     -2.56125593	    -12.21347264	      1.19311755	     32.94166001	     89.95437384	      0.00000000	      0.00000000	      0.30006165	      8.88146045	     13.50109507	     19.81611973	     89.95437384	      0.00000000	      0.00000000
      0.05000000	     17.03417473	      1.18763746	      0.68500888	     -1.03756409	      0.94891669	      1.02247711	    -22.59043410	      1.70928626	    -14.46568232	    -11.92775147	     -0.20817854	     11.58421043	      1.05375007	     -2.67936427	     -2.38304710	      1.90114947	     17.06661627	    -20.85868100	     -0.36405266	      7.56354722	      6.07690981	     -2.00906026	    -23.68682120	     -2.03234616	     -0.96840835	     -2.47226407	    -12.24375133	      1.20326276	     33.00807220	     89.95437384	      0.00000000	      0.00000000	     -0.01140278	      8.93487351	     13.42867434	     19.69849705	     89.95437384	      0.00000000	      0.00000000
      0.06000000	     17.38865828	      1.65986223	      0.11657433	     -1.03251659	      0.94920195	      1.02286479	    -23.27094154	      0.99969671	    -14.09832078	    -12.01784744	     -0.20975101	     11.85422963	      1.06589317	     -2.84611267	     -2.78226241	      1.33602148	     18.46371796	    -19.09051135	     -0.33319228	      6.05174594	      3.38721227	     -2.52853241	    -24.00220156	     -2.71730184	     -0.58681638	     -2.46494435	    -12.28489575	      1.27852050	     33.01941203	     89.95437384	      0.00000000	      0.00000000	     -0.34051134	      8.91068506	     13.85092684	     19.41948142	     89.95437384	      0.00000000	      0.00000000
